<svg xmlns="http://www.w3.org/2000/svg" width="52" height="48" fill="none"><path fill="url(#a)" d="M0 2.516A2.5 2.5 0 0 1 2.497 0c1.386 0 2.53 1.121 2.535 2.507l.07 19.202c0 .243.211.43.453.4a.373.373 0 0 0 .283-.18c.076-.137.104-.245.137-.44.078-.425.188-.838.306-1.252a.087.087 0 0 1 .084-.064c.05 0 .091-.043.089-.093l-.01-.191c-.001-.35.104-.595.254-.912.115-.368.2-.737.274-1.115.014-.053.024-.088.037-.12.076-.202.194-.389.207-.604l.006-.048c.04-.311.222-.594.246-.906 0-.007.002-.014.003-.02.049-.277.223-.515.273-.79l.04-.218c.01-.049.013-.069.017-.094a.086.086 0 0 1 .085-.072.087.087 0 0 0 .087-.087v-.548c0-.046.037-.083.082-.083.044 0 .08-.033.083-.076l.007-.09.018-.217c.005-.071.01-.143.017-.216.006-.04.011-.071.017-.098.05-.25.217-.462.265-.713l.04-.195.016-.08a.085.085 0 0 1 .083-.069c.05 0 .089-.04.087-.089l-.003-.06-.004-.195-.006-.193.004-.04c.026-.28.211-.518.261-.793l.04-.218.017-.091a.09.09 0 0 1 .088-.075.091.091 0 0 0 .091-.083l.005-.063.018-.193.017-.19c.013-.076.032-.143.055-.206.074-.207.164-.41.178-.63l.015-.114c.037-.266.217-.495.234-.763l.018-.22a.188.188 0 0 1 .18-.178c.03 0 .056 0 .091.002.088.003.17.047.221.12.064.09.083.129.157.286.053.105.088.219.099.336l.018.22.02.242.036.502c.011.141.025.277.044.411.08.567.21 1.127.227 1.699.011.266.029.479.115.733.124.377.113.755.125 1.148.01.277.026.503.114.768.125.377.114.758.125 1.153.012.368.012.368.114.718.145.369.115.771.125 1.163.003.094.009.181.018.264.05.471.203.928.216 1.402.003.11.008.213.017.314.05.601.21 1.19.227 1.793.011.276.026.502.115.765.13.396.114.8.125 1.214l.007.198.004.178c.014.172.014.172.104.327.09.183.097.3.094.504l-.001.193-.005.2a173.153 173.153 0 0 1-.007.561.082.082 0 0 0 .164.015c.024-.158.025-.174.033-.387l.006-.11c.026-.407.222-.787.245-1.193l.003-.016c.038-.248.21-.459.22-.71.025-.323.077-.53.269-.792a.292.292 0 0 0 .025-.04.267.267 0 0 1 .223-.148l.664-.039a.604.604 0 0 0 .568-.57c.03-.539.03-.539.13-.736.141-.288.114-.61.124-.926l.006-.115c.026-.39.215-.758.228-1.148.005-.13.011-.244.025-.352.05-.393.198-.772.214-1.168a3.82 3.82 0 0 1 .03-.387c.052-.366.194-.719.21-1.088.006-.15.014-.276.035-.396.057-.333.188-.653.203-.99a3.39 3.39 0 0 1 .043-.408c.07-.406.193-.802.241-1.211l.002-.013c.065-.546.191-1.083.253-1.63.049-.418.17-.828.215-1.246l.017-.164c.027-.242.058-.458.15-.685.133-.336.113-.691.128-1.049.028-.261.028-.261.108-.42.117-.236.108-.457.12-.718.021-.524.021-.524.119-.715.122-.248.109-.487.12-.76a3.79 3.79 0 0 1 .03-.387c.051-.366.193-.719.209-1.088.022-.524.022-.524.12-.716.12-.247.108-.486.119-.76.009-.23.017-.418.07-.606.06-.215.158-.422.174-.644.011-.097.019-.164.027-.211.02-.127.159-.18.287-.18.128 0 .258.057.294.18.065.225.025.547.035.743.015.271.015.271.11.473.133.344.114.705.124 1.07.009.336.009.336.115.65.088.177.102.296.107.494l.007.189.01.39.008.188.004.171c.015.168.015.168.103.323.089.177.102.296.107.493l.007.189.01.39.008.188.005.171c.047.34.2.657.215 1 .005.114.009.228.012.343.002.06.006.116.01.17.04.443.211.871.224 1.316.005.447.005.447.117.873.131.334.135.681.162 1.036.013.175.03.344.052.509.08.604.215 1.202.24 1.812.013.272.013.272.107.477.128.324.114.664.125 1.009.01.24.023.442.114.665.135.343.114.703.125 1.068.008.335.008.335.114.648.088.178.102.297.107.495l.007.189.01.39.008.188.005.171c.047.34.201.657.216.999l.006.156c.006.45.006.45.12.882.136.34.114.701.124 1.064.009.336.009.336.115.649.088.178.102.297.107.494l.007.19.01.39.008.188.004.171c.015.168.015.168.103.322.089.178.102.296.107.494l.007.188.01.39.008.19.004.17.01.056c.06.3.2.58.223.884l.018.238c.002.04.053.045.062.007a2.08 2.08 0 0 0 .049-.444l.008-.222.014-.462.008-.223.006-.203a1.05 1.05 0 0 1 .04-.185c.07-.221.17-.436.17-.668l.008-.199.005-.205c.005-.17.011-.323.027-.47.052-.472.2-.93.212-1.404.003-.107.009-.209.017-.307.05-.606.211-1.2.228-1.807a3.43 3.43 0 0 1 .017-.237c.05-.468.204-.92.217-1.391.004-.153.014-.297.029-.438.062-.573.21-1.135.255-1.71l.038-.45.016-.2c.029-.223.116-.436.134-.661l.003-.046.02-.233.036-.485.02-.234.016-.213c.015-.103.04-.196.07-.287.07-.213.146-.427.148-.652l.007-.186.005-.19c.003-.107.008-.21.016-.308.05-.606.212-1.199.229-1.807.006-.16.018-.302.044-.438.061-.33.178-.65.2-.986l.018-.258a.21.21 0 0 1 .207-.197h.138c.093 0 .189.036.228.12.044.094.053.198.076.316.073.353.182.706.21 1.066.033.304.215.572.236.877l.005.082c.03.303.213.569.234.872l.006.085c.029.302.21.57.23.872l.009.155v.016c.016.254.212.464.227.719l.004.067c.027.406.223.785.247 1.191.015.265.215.486.232.75l.005.08a302.831 302.831 0 0 1 .025.388c.003.045.04.08.084.08.045 0 .083.035.086.08l.006.086c.01.108.01.108.018.218l.017.216c.033.32.22.603.24.924l.005.058c.03.304.222.566.264.868l.002.017c.022.154.047.287.084.416.077.266.192.522.24.795l.005.026c.062.356.171.704.2 1.065.033.304.215.572.236.878l.005.082.012.106c.036.23.2.425.215.659.014.202.029.34.12.523.115.231.115.453.132.708.03.3.213.565.233.866l.006.088c.03.302.21.57.225.872l.006.14c.022.12.055.208.104.29.06.103.211.067.24-.049l.062-.196a.217.217 0 0 1 .11-.129.215.215 0 0 0 .107-.12 8.51 8.51 0 0 0 .13-.397l.13-.389.063-.189.025-.076a.092.092 0 0 1 .088-.064.093.093 0 0 0 .093-.092v-.175c0-.078.05-.148.124-.173a.184.184 0 0 0 .125-.158l.01-.114c.044-.319.164-.581.3-.87a4.95 4.95 0 0 0 .217-.582.097.097 0 0 1 .092-.068c.05 0 .092-.038.097-.088.005-.06.01-.12.017-.181.035-.185.14-.358.318-.418.089-.03.181-.051.276-.064.753-.105 1.374-.583 1.374-1.343V2.63A2.615 2.615 0 0 1 36.498 0c1.454 0 2.652 1.178 2.652 2.631v13.555a6.22 6.22 0 0 0 6.219 6.22h5.898c.177 0 .321.143.321.32v.018c0 .13-.085.246-.21.284-.263.093-.499.205-.747.334-3.349 1.675-3.349 1.675-3.578 1.784-.2.104-.384.213-.573.334a3.613 3.613 0 0 1-.713.354c-.16.078-.32.158-.478.24l-2.13 1.063c-.29.146-.578.298-.865.451l-.156.083c-.224.12-.444.24-.661.37a3.643 3.643 0 0 1-.573.265c-.16.078-.32.158-.479.239-2.392 1.196-2.392 1.196-2.621 1.305a8.53 8.53 0 0 0-.749.45c-.049.028-.08.046-.108.058-.092.038-.172.112-.152.21.054.367.07.73.085 1.102l.01.26c.048 1.365.047 2.732.054 4.099l.005.974a2927.271 2927.271 0 0 1 .026 4.663A2315.398 2315.398 0 0 1 37 46.477a179.179 179.179 0 0 1 .004.737c0 .25-.121.495-.37.483-.045-.002-.092-.005-.138-.005h-.739a113.793 113.793 0 0 0-.954 0h-.178l-.171-.001c-.23-.003-.343-.214-.351-.443l-.01-.23-.008-.254-.01-.267-.02-.566-.03-.828a311.197 311.197 0 0 1-.07-2.127c-.086-2.546-.09-5.094-.092-7.641 0-.737-.003-1.474-.006-2.211-.003-.525-.004-1.05-.004-1.576 0-.311-.001-.623-.003-.934-.002-.29-.002-.58-.002-.87l-.002-.471.001-.282v-.063c0-.121-.006-.253.046-.363.063-.134.207-.202.34-.265.12-.057.243-.105.37-.154.16-.078.32-.158.48-.239 1.913-.957 1.913-.957 2.142-1.067.2-.103.384-.212.573-.333.232-.148.454-.259.713-.354a710.78 710.78 0 0 0 .957-.478l.16-.084.168-.086.155-.08c.154-.07.154-.07.328-.109a986 986 0 0 0 .113-.031.076.076 0 0 0-.03-.149l-.14.02c-.316.039-.626.05-.944.05h-1.866a375.201 375.201 0 0 0-1.781 0 153.182 153.182 0 0 0-.89 0h-.297c-.078-.003-.13-.005-.175-.01-.154-.015-.303.08-.303.235v.03c0 .08-.05.15-.126.176a.186.186 0 0 0-.126.156l-.012.12c-.045.32-.15.599-.269.894a.1.1 0 0 1-.093.063.101.101 0 0 0-.101.091l-.01.104c-.077.361-.224.668-.38 1.001l-.239.559-.12.274c-.12.284-.228.57-.335.86a.093.093 0 0 1-.088.062.094.094 0 0 0-.095.094v.275a.175.175 0 0 1-.096.157.176.176 0 0 0-.087.097c-.05.136-.093.274-.136.413-.042.13-.086.26-.13.389l-.062.189-.026.076a.092.092 0 0 1-.087.064.093.093 0 0 0-.093.092v.175c0 .078-.05.148-.124.173a.184.184 0 0 0-.126.158l-.01.114c-.044.319-.163.581-.3.87a4.93 4.93 0 0 0-.215.577.103.103 0 0 1-.098.073.104.104 0 0 0-.102.081l-.126.568a.088.088 0 0 1-.086.069.089.089 0 0 0-.089.088v.295c0 .059-.032.111-.084.137a.155.155 0 0 0-.085.121l-.02.186a1.34 1.34 0 0 1-.061.272c-.056.131-.198.215-.336.247-.239.056-.476-.096-.492-.34-.007-.115-.001-.233-.008-.333a1.97 1.97 0 0 0-.014-.13c-.038-.23-.2-.424-.215-.658-.014-.202-.03-.34-.12-.523-.116-.231-.115-.453-.132-.708-.03-.3-.213-.565-.234-.866l-.005-.088c-.03-.303-.223-.566-.267-.867l-.005-.032a3.22 3.22 0 0 1-.002-.036c-.025-.358-.175-.695-.202-1.053-.033-.305-.218-.576-.238-.883 0-.008 0-.017-.002-.027l-.018-.262-.007-.121a.085.085 0 0 0-.084-.08.086.086 0 0 1-.085-.08l-.007-.086-.018-.218c-.005-.071-.01-.142-.017-.216-.033-.319-.22-.603-.242-.924v-.006l-.018-.263-.007-.118a.088.088 0 0 0-.087-.083.089.089 0 0 1-.088-.075l-.019-.123-.04-.26-.04-.258c-.038-.234-.038-.234-.134-.407-.093-.188-.091-.323-.085-.531l.004-.193.002-.058a.084.084 0 0 0-.084-.088.085.085 0 0 1-.084-.07l-.105-.635c-.007-.043-.069-.041-.074.002l-.043.33-.02.166c-.061.462-.162.92-.18 1.386l-.006.143c-.006.135-.02.26-.04.382-.067.413-.184.818-.197 1.236-.013.391-.058.734-.16 1.114-.092.403-.105.822-.136 1.233a4.47 4.47 0 0 1-.145.899c-.113.397-.111.787-.123 1.197l-.007.185-.005.167c-.023.159-.023.159-.102.317-.09.182-.102.307-.107.51l-.008.198-.005.205c-.004.154-.01.295-.023.431-.05.498-.203.983-.216 1.483a6.451 6.451 0 0 1-.017.34c-.049.61-.21 1.209-.227 1.821l-.008.187-.004.168c-.023.16-.023.16-.103.318-.09.182-.102.305-.107.507l-.007.197-.005.204c-.006.21-.018.4-.043.587-.061.447-.183.886-.197 1.337-.018.614-.018.614-.12.914-.124.379-.113.76-.124 1.155a3.369 3.369 0 0 1-.017.237c-.05.468-.204.921-.217 1.392-.01.349-.021.663-.119 1-.105.373-.117.731-.13 1.117l-.01.223-.008.2a.352.352 0 0 1-.351.34.331.331 0 0 1-.31-.197c-.152-.37-.186-.704-.193-1.134a38.057 38.057 0 0 0-.01-.4l-.004-.176a.937.937 0 0 0-.042-.183c-.07-.209-.16-.413-.166-.633a161.48 161.48 0 0 1-.007-.188l-.005-.194a5.873 5.873 0 0 0-.019-.354c-.046-.523-.22-1.03-.26-1.554a8.223 8.223 0 0 0-.06-.539c-.082-.557-.207-1.109-.232-1.672-.017-.269-.017-.269-.107-.505-.113-.346-.114-.688-.125-1.048a2.465 2.465 0 0 0-.114-.71c-.116-.349-.114-.695-.125-1.058-.011-.319-.011-.319-.115-.615-.088-.179-.102-.298-.107-.496l-.007-.189-.01-.39-.008-.189-.004-.17c-.048-.34-.2-.657-.215-1a21.638 21.638 0 0 1-.013-.344c-.008-.337-.008-.337-.114-.652-.088-.178-.102-.297-.107-.495l-.007-.188-.01-.39-.008-.19-.005-.17c-.014-.168-.014-.168-.102-.323-.089-.177-.102-.296-.107-.493l-.008-.189-.01-.39-.007-.188-.005-.171c-.047-.34-.202-.657-.216-.999a11.363 11.363 0 0 1-.006-.156 6.008 6.008 0 0 0-.012-.246c-.04-.57-.216-1.123-.232-1.693-.014-.353-.014-.353-.112-.688-.131-.33-.139-.674-.167-1.026l-.038-.434-.016-.194c-.007-.17-.115-.322-.13-.492l-.008-.091-.019-.22a177.33 177.33 0 0 1-.036-.46 6.427 6.427 0 0 0-.043-.373c-.082-.557-.211-1.108-.236-1.67-.017-.27-.017-.27-.107-.505-.114-.348-.114-.693-.125-1.056a2.913 2.913 0 0 0-.038-.382c-.036-.204-.257-.199-.279.008l-.02.194-.022.204-.021.205-.046.428a.083.083 0 0 1-.082.074.084.084 0 0 0-.083.085l.001.087c.01 1.102.01 1.102-.163 1.403-.109.247-.108.47-.119.738-.022.523-.022.523-.12.714-.12.247-.114.505-.124.775-.006.143-.011.25-.016.331-.014.231-.224.347-.455.358l-.218.01-.228.01-.23.01a.768.768 0 0 0-.71.568c-.076.284-.146.57-.208.859-.053.237-.11.474-.168.71l-.06.247c-.054.192-.147.38-.163.579l-.02.295a2.08 2.08 0 0 1-.02.117c-.051.233-.198.438-.21.676-.008.12-.016.202-.036.277-.06.23-.191.441-.203.68-.007.1-.014.173-.027.239-.053.258-.2.493-.212.757-.009.137-.016.23-.039.316-.06.23-.189.443-.2.68-.009.12-.017.204-.037.278-.06.23-.19.441-.203.68a1.45 1.45 0 0 1-.037.282c-.062.227-.19.435-.202.67a1.603 1.603 0 0 1-.049.31c-.069.258-.185.503-.23.766-.02.108-.043.21-.07.31-.09.334-.211.661-.283 1.001a26.709 26.709 0 0 1-.23.966c-.068.245-.151.488-.172.742l-.012.16-.019.098c-.052.233-.199.437-.21.675-.01.132-.018.219-.043.3-.064.214-.189.409-.207.632a.337.337 0 0 1-.359.306c-.096-.001-.193-.039-.228-.128-.074-.192-.04-.47-.05-.658-.021-.253-.021-.253-.11-.482-.1-.311-.11-.598-.12-.922-.01-.336-.026-.634-.12-.96-.113-.398-.113-.786-.125-1.198-.012-.366-.012-.366-.114-.714-.146-.37-.115-.777-.125-1.17l-.007-.2-.005-.179a.957.957 0 0 0-.039-.172c-.071-.218-.164-.432-.17-.662l-.007-.197-.006-.204a6.445 6.445 0 0 0-.017-.352c-.05-.606-.21-1.2-.227-1.807-.012-.367-.012-.367-.114-.716-.15-.386-.115-.814-.125-1.224l-.008-.21-.004-.19a.99.99 0 0 0-.04-.176c-.07-.22-.164-.436-.17-.667l-.007-.199-.005-.205a5.429 5.429 0 0 0-.032-.511c-.053-.443-.191-.877-.203-1.323a8.012 8.012 0 0 0-.228-1.601 7.666 7.666 0 0 1-.122-1.167c-.004-.081-.114-.106-.15-.032a.08.08 0 0 1-.072.044h-.01a.097.097 0 0 0-.097.1l.007.204c.002.082.003.144-.002.197-.024.275-.205.513-.252.785l-.023.128c-.043.24-.166.465-.217.704l-.042.2-.016.077a.095.095 0 0 1-.094.077.097.097 0 0 0-.095.08l-.027.16a.286.286 0 0 1-.282.238H6.62c-.883 0-1.598.715-1.598 1.597v18.775A2.496 2.496 0 0 1 2.53 48C1.143 48 0 46.876 0 45.488V2.516Z"/><defs><linearGradient id="a" x1="8.813" x2="38.318" y1="6" y2="44.688" gradientUnits="userSpaceOnUse"><stop stop-color="#007BFF"/><stop offset="1" stop-color="#28A745"/></linearGradient></defs></svg>