<svg width="52" height="48" viewBox="0 0 52 48" fill="none" xmlns="http://www.w3.org/2000/svg">
<path d="M0 2.51645C0 1.12682 1.10767 0 2.4973 0C3.88339 0 5.02729 1.12099 5.03227 2.50708C5.05506 8.84071 5.07791 15.1933 5.10134 21.7086C5.10222 21.9518 5.31331 22.1398 5.55459 22.1097C5.67145 22.0951 5.78154 22.0318 5.83831 21.9286C5.91368 21.7916 5.94169 21.6843 5.97508 21.4884C6.05334 21.0639 6.16323 20.6513 6.2808 20.2368C6.29154 20.1989 6.32561 20.1728 6.36499 20.1728C6.41551 20.1728 6.45624 20.1304 6.45359 20.08C6.45027 20.0169 6.44693 19.9534 6.44352 19.8887C6.44291 19.5387 6.54772 19.294 6.69767 18.9767C6.81345 18.609 6.89777 18.2396 6.97176 17.8617C6.98643 17.8092 6.9963 17.7738 7.00852 17.7416C7.08511 17.54 7.20339 17.3532 7.21595 17.1379C7.2181 17.1209 7.22014 17.1049 7.22209 17.0897C7.26201 16.7788 7.44424 16.4964 7.46761 16.1839C7.46885 16.1768 7.47003 16.17 7.47117 16.1635C7.51972 15.8875 7.69406 15.6494 7.74419 15.3738C7.75755 15.3019 7.77091 15.2301 7.78468 15.156C7.7933 15.1072 7.79679 15.0874 7.80132 15.0617C7.80863 15.0202 7.84406 14.99 7.88613 14.99C7.93402 14.99 7.97342 14.9512 7.97342 14.9033C7.97342 14.7221 7.97342 14.5404 7.97342 14.355C7.97342 14.3094 8.00979 14.2724 8.05539 14.2724C8.09872 14.2724 8.13528 14.2389 8.13836 14.1957C8.13998 14.1729 8.14147 14.1521 8.14473 14.1064C8.15069 14.0346 8.15665 13.9627 8.16279 13.8887C8.16834 13.8175 8.17389 13.7462 8.17961 13.6729C8.18619 13.6335 8.19146 13.6019 8.19693 13.5747C8.24736 13.3248 8.41415 13.1126 8.46179 12.8621C8.47516 12.7977 8.48852 12.7332 8.50228 12.6668C8.50749 12.6404 8.51269 12.614 8.51794 12.5874C8.52585 12.5472 8.56051 12.5183 8.60146 12.5183C8.65006 12.5183 8.68951 12.4779 8.68767 12.4293C8.68693 12.4096 8.68618 12.3898 8.68542 12.3697C8.68398 12.3053 8.68255 12.2408 8.68106 12.1744C8.67921 12.1106 8.67736 12.0468 8.67546 11.981C8.67671 11.9665 8.67785 11.9533 8.67899 11.9409C8.7047 11.6619 8.89008 11.4235 8.9402 11.1478C8.95356 11.076 8.96692 11.0042 8.98069 10.9301C8.98895 10.8833 8.9925 10.8631 8.99677 10.8389C9.0044 10.7957 9.04141 10.7641 9.08535 10.7641C9.13252 10.7641 9.17237 10.7279 9.17619 10.6809C9.17743 10.6656 9.17887 10.6479 9.18127 10.6184C9.18723 10.5546 9.19319 10.4909 9.19934 10.4252C9.20489 10.3623 9.21044 10.2994 9.21616 10.2346C9.22947 10.1588 9.24788 10.0922 9.27061 10.0289C9.34497 9.8219 9.43505 9.61822 9.44851 9.39867C9.45415 9.35489 9.459 9.31732 9.46362 9.28461C9.50114 9.01868 9.68141 8.78967 9.69767 8.5216C9.70364 8.44903 9.7096 8.37647 9.71574 8.3017C9.72251 8.20508 9.79974 8.12604 9.89658 8.12424C9.92547 8.1237 9.95248 8.12413 9.98699 8.12554C10.0752 8.12913 10.1573 8.17347 10.2084 8.24552C10.272 8.3353 10.2907 8.37451 10.3654 8.53156C10.4182 8.63708 10.4529 8.75087 10.464 8.86832C10.471 8.94152 10.4769 9.01482 10.4822 9.08814C10.4885 9.16785 10.4947 9.24756 10.5011 9.32968C10.5135 9.49703 10.5258 9.66439 10.5378 9.83176C10.549 9.97334 10.5635 10.1094 10.5823 10.243C10.6618 10.8099 10.7921 11.3697 10.8093 11.9419C10.8203 12.2077 10.8379 12.4209 10.9236 12.6749C11.0477 13.0516 11.0374 13.4295 11.0485 13.8233C11.0592 14.1001 11.0745 14.3265 11.1628 14.5911C11.2884 14.9684 11.2767 15.3491 11.2877 15.7439C11.3003 16.1118 11.3003 16.1118 11.402 16.4623C11.5472 16.8306 11.5167 17.2334 11.5269 17.6253C11.5303 17.7192 11.5358 17.806 11.5446 17.8889C11.5942 18.3601 11.7477 18.8171 11.7608 19.2907C11.7639 19.4004 11.7691 19.5042 11.7775 19.6049C11.8276 20.2062 11.9884 20.7948 12.0053 21.398C12.016 21.674 12.0306 21.8996 12.1196 22.163C12.2498 22.5586 12.2338 22.9634 12.2445 23.3771C12.2469 23.4422 12.2492 23.5074 12.2517 23.5745C12.2532 23.6333 12.2546 23.692 12.2562 23.7526C12.2704 23.9246 12.2704 23.9246 12.3595 24.0798C12.4504 24.2631 12.457 24.3809 12.4541 24.5843C12.4533 24.6799 12.4533 24.6799 12.4526 24.7774C12.4506 24.8761 12.4506 24.8761 12.4485 24.9767C12.4478 25.0438 12.4471 25.1108 12.4463 25.1798C12.445 25.2994 12.4431 25.4189 12.441 25.5385C12.4399 25.6003 12.5043 25.6415 12.5596 25.6139C12.5834 25.602 12.6005 25.579 12.6046 25.5527C12.6294 25.3951 12.63 25.3789 12.6379 25.1661C12.64 25.1262 12.6419 25.0895 12.6441 25.0553C12.6701 24.6491 12.8657 24.2689 12.8895 23.8626C12.8904 23.8571 12.8912 23.8518 12.892 23.8466C12.9295 23.5988 13.1027 23.3884 13.1113 23.1379C13.137 22.8142 13.1892 22.6071 13.381 22.345C13.3904 22.3321 13.3988 22.3186 13.406 22.3043C13.4487 22.2189 13.5338 22.1627 13.6291 22.1571C13.8493 22.1441 14.0699 22.1311 14.2925 22.118C14.5991 22.1 14.8434 21.8549 14.8605 21.5482C14.8904 21.0092 14.8904 21.0092 14.9907 20.8122C15.1322 20.524 15.1046 20.2021 15.1149 19.8857C15.1168 19.8444 15.1188 19.8063 15.1212 19.7706C15.1474 19.3811 15.3361 19.0131 15.3488 18.6229C15.3539 18.4927 15.3603 18.3787 15.3739 18.2712C15.4233 17.8781 15.5725 17.4989 15.588 17.103C15.5937 16.9588 15.6009 16.8343 15.6177 16.7165C15.6701 16.3503 15.8116 15.9975 15.8272 15.6279C15.8336 15.4785 15.8425 15.3519 15.8631 15.2317C15.9199 14.8993 16.0507 14.5794 16.0664 14.2425C16.0733 14.0968 16.0875 13.9635 16.1094 13.8339C16.1782 13.4279 16.3021 13.0319 16.3505 12.6229C16.351 12.6185 16.3516 12.614 16.3521 12.6096C16.4174 12.0641 16.5432 11.5267 16.6047 10.9807C16.6538 10.5625 16.7741 10.1525 16.8195 9.73392C16.8254 9.67946 16.8312 9.62497 16.8368 9.57044C16.8644 9.32832 16.8948 9.1116 16.9862 8.88476C17.1195 8.54907 17.1002 8.19355 17.1154 7.83607C17.1429 7.57475 17.1429 7.57475 17.2226 7.41559C17.34 7.18025 17.3311 6.95873 17.3422 6.69767C17.3644 6.17437 17.3644 6.17437 17.4618 5.98256C17.5835 5.73543 17.5706 5.49574 17.5814 5.22259C17.5871 5.07841 17.5942 4.95389 17.6111 4.8361C17.6634 4.46988 17.8049 4.11712 17.8206 3.74751C17.8428 3.2242 17.8428 3.2242 17.9402 3.03239C18.0619 2.78526 18.049 2.54558 18.0598 2.27243C18.0689 2.0416 18.0772 1.85407 18.1295 1.666C18.1895 1.45075 18.2877 1.24443 18.304 1.02159C18.3151 0.924545 18.3227 0.85848 18.3305 0.810911C18.3511 0.684186 18.4895 0.630399 18.6179 0.630399C18.7463 0.630399 18.8759 0.687894 18.9117 0.8112C18.977 1.03618 18.9369 1.35794 18.9465 1.55357C18.9625 1.82508 18.9625 1.82508 19.0568 2.02668C19.1898 2.37141 19.1707 2.73156 19.1814 3.09764C19.1899 3.43294 19.1899 3.43294 19.2957 3.74624C19.384 3.92437 19.3976 4.04335 19.4028 4.24086C19.4052 4.30315 19.4076 4.36544 19.41 4.42961C19.4135 4.55959 19.417 4.68958 19.4206 4.81956C19.4229 4.88185 19.4253 4.94413 19.4277 5.00831C19.4292 5.06473 19.4307 5.12116 19.4323 5.1793C19.447 5.3471 19.447 5.3471 19.5349 5.50166C19.6236 5.67919 19.6368 5.79785 19.642 5.99502C19.6444 6.0573 19.6468 6.11959 19.6492 6.18376C19.6527 6.31375 19.6562 6.44373 19.6598 6.57371C19.6621 6.636 19.6645 6.69829 19.6669 6.76246C19.6684 6.81889 19.6699 6.87531 19.6715 6.93345C19.7191 7.27233 19.8716 7.59034 19.8867 7.93222C19.8918 8.04665 19.8957 8.16125 19.899 8.27647C19.9014 8.33627 19.9048 8.39232 19.9096 8.44577C19.9495 8.88932 20.12 9.31731 20.1329 9.76246C20.138 10.2089 20.138 10.2089 20.25 10.6355C20.3815 10.9687 20.3853 11.316 20.412 11.6711C20.4252 11.8463 20.4417 12.0145 20.4637 12.18C20.5442 12.7844 20.6788 13.3823 20.7035 13.9915C20.7166 14.264 20.7166 14.264 20.8106 14.4686C20.9385 14.7934 20.9247 15.133 20.9355 15.4778C20.9459 15.7172 20.9592 15.92 21.0498 16.1434C21.1848 16.4856 21.1642 16.8462 21.1747 17.2106C21.1833 17.5459 21.1833 17.5459 21.289 17.8592C21.3774 18.0373 21.391 18.1563 21.3962 18.3538C21.3985 18.4161 21.4009 18.4784 21.4033 18.5426C21.4069 18.6726 21.4104 18.8025 21.4139 18.9325C21.4163 18.9948 21.4187 19.0571 21.4211 19.1213C21.4226 19.1777 21.4241 19.2341 21.4256 19.2923C21.4732 19.6311 21.6273 19.949 21.6422 20.2909C21.6444 20.3427 21.6463 20.3946 21.6478 20.4468C21.6542 20.8977 21.6542 20.8977 21.7674 21.3289C21.9036 21.6693 21.8818 22.0303 21.8923 22.3933C21.9009 22.7286 21.9009 22.7286 22.0066 23.0419C22.095 23.2201 22.1086 23.339 22.1138 23.5365C22.1173 23.63 22.1173 23.63 22.121 23.7253C22.1245 23.8553 22.128 23.9853 22.1315 24.1152C22.1351 24.2087 22.1351 24.2087 22.1387 24.304C22.1402 24.3604 22.1417 24.4168 22.1432 24.475C22.158 24.6428 22.158 24.6428 22.2458 24.7973C22.3346 24.9749 22.3478 25.0935 22.353 25.2907C22.3565 25.3841 22.3565 25.3841 22.3602 25.4794C22.3637 25.6094 22.3672 25.7394 22.3707 25.8694C22.3743 25.9628 22.3743 25.9628 22.3779 26.0581C22.3794 26.1146 22.3809 26.171 22.3824 26.2291C22.3851 26.2484 22.3883 26.2671 22.3919 26.2852C22.4511 26.5848 22.5929 26.8648 22.6146 27.1694C22.6236 27.2872 22.6236 27.2872 22.6327 27.4074C22.6352 27.4463 22.6856 27.452 22.6946 27.4141C22.7287 27.27 22.739 27.1414 22.7439 26.9704C22.7465 26.8971 22.7491 26.8237 22.7518 26.7482C22.7567 26.5941 22.7613 26.4401 22.7655 26.286C22.7682 26.2125 22.771 26.1391 22.7738 26.0634C22.7758 25.9965 22.7778 25.9295 22.7798 25.8605C22.7888 25.7915 22.8026 25.7313 22.8206 25.6748C22.8908 25.4536 22.9893 25.239 22.9909 25.007C22.9932 24.9414 22.9956 24.8759 22.998 24.8084C22.9998 24.7406 23.0015 24.6728 23.0033 24.603C23.0077 24.4339 23.0142 24.2805 23.0304 24.1322C23.0818 23.6612 23.2294 23.2028 23.2425 22.7292C23.2455 22.6221 23.2506 22.5205 23.2587 22.422C23.3083 21.816 23.4702 21.2227 23.487 20.6149C23.4903 20.5308 23.4956 20.4528 23.5037 20.3783C23.5544 19.9105 23.7078 19.4571 23.7209 18.9867C23.7252 18.8339 23.7346 18.6899 23.7498 18.5493C23.812 17.9758 23.9593 17.4139 24.005 16.8389C24.0173 16.6888 24.0298 16.5388 24.0427 16.3888C24.0479 16.323 24.0532 16.2573 24.0586 16.1895C24.0876 15.9658 24.1752 15.7528 24.193 15.5279C24.1942 15.5125 24.1954 15.4972 24.1965 15.4818C24.2028 15.405 24.209 15.3282 24.2154 15.249C24.2279 15.0873 24.2401 14.9255 24.2521 14.7638C24.2584 14.6866 24.2648 14.6095 24.2713 14.53C24.2766 14.4596 24.282 14.3892 24.2875 14.3167C24.3033 14.2142 24.3279 14.121 24.358 14.0298C24.4284 13.8167 24.5037 13.6026 24.5058 13.3782C24.5082 13.3169 24.5105 13.2556 24.513 13.1924C24.5156 13.098 24.5156 13.098 24.5183 13.0017C24.5213 12.8945 24.5264 12.7929 24.5344 12.6945C24.5841 12.0884 24.7459 11.4952 24.7628 10.8873C24.769 10.7262 24.7814 10.5855 24.8068 10.4487C24.8681 10.1187 24.9846 9.79838 25.0066 9.46346C25.0126 9.37825 25.0186 9.29304 25.0247 9.20525C25.0314 9.09491 25.1216 9.00795 25.2322 9.00755C25.278 9.00738 25.3238 9.0075 25.3696 9.00788C25.4629 9.00865 25.5586 9.04379 25.5982 9.12829C25.6422 9.22228 25.6505 9.3265 25.6744 9.44352C25.747 9.79688 25.8556 10.15 25.8834 10.5097C25.9173 10.8138 26.0994 11.0821 26.12 11.3874C26.1218 11.4146 26.1236 11.4419 26.1254 11.4693C26.1546 11.7717 26.3385 12.0379 26.359 12.3411C26.3609 12.3693 26.3627 12.3977 26.3646 12.4261C26.3938 12.7282 26.5758 12.9953 26.5946 13.2983C26.5978 13.3497 26.6008 13.4012 26.6038 13.453C26.6041 13.4584 26.6044 13.4638 26.6047 13.4689C26.6196 13.7234 26.8156 13.9333 26.8306 14.1877C26.832 14.2113 26.8333 14.2337 26.8347 14.2549C26.8619 14.6609 27.0584 15.0401 27.0822 15.4463C27.0975 15.7109 27.2967 15.932 27.3139 16.1965C27.3154 16.2201 27.3171 16.2463 27.3189 16.2757C27.3279 16.4068 27.3279 16.4068 27.337 16.5405C27.3394 16.5815 27.3418 16.6226 27.3442 16.6641C27.3468 16.709 27.3834 16.7442 27.4285 16.7442C27.4731 16.7442 27.5108 16.7787 27.5139 16.8232C27.516 16.8519 27.518 16.8808 27.5201 16.9102C27.5291 17.018 27.5291 17.018 27.5382 17.1279C27.5438 17.1991 27.5493 17.2704 27.555 17.3438C27.5879 17.6633 27.7745 17.9472 27.7959 18.2677C27.7972 18.2873 27.7985 18.3068 27.7998 18.3264C27.8291 18.6297 28.0218 18.8925 28.0641 19.1942C28.0649 19.1998 28.0657 19.2054 28.0664 19.211C28.0878 19.3645 28.1125 19.4977 28.1498 19.6268C28.2267 19.8932 28.3419 20.149 28.3904 20.4219C28.3919 20.4308 28.3934 20.4395 28.3949 20.4478C28.4572 20.8043 28.5664 21.1521 28.5944 21.513C28.6282 21.8171 28.8103 22.0854 28.8309 22.3907C28.8328 22.4179 28.8346 22.4452 28.8364 22.4726C28.8406 22.5163 28.8439 22.5501 28.8483 22.5789C28.8839 22.8099 29.0474 23.0043 29.0631 23.2375C29.0768 23.4397 29.0917 23.5787 29.1827 23.7608C29.2983 23.992 29.2976 24.214 29.3148 24.4688C29.3448 24.7693 29.5278 25.0336 29.5481 25.335C29.5501 25.3642 29.552 25.3934 29.554 25.4228C29.5832 25.7247 29.7636 25.9925 29.7788 26.2954C29.7811 26.3415 29.7832 26.3877 29.7854 26.4341C29.8069 26.5546 29.84 26.6433 29.8886 26.7255C29.9494 26.8284 30.1001 26.7919 30.1296 26.6761C30.1501 26.6111 30.1706 26.5462 30.1914 26.4802C30.2092 26.4239 30.2485 26.3774 30.3014 26.351C30.3507 26.3263 30.3897 26.2837 30.4082 26.2317C30.4552 26.1004 30.4977 25.9674 30.5382 25.8339C30.5811 25.7042 30.6243 25.5746 30.6678 25.4452C30.6885 25.3829 30.7093 25.3206 30.7307 25.2564C30.7392 25.2309 30.7477 25.2054 30.7563 25.1796C30.7689 25.1418 30.8038 25.1163 30.8437 25.1163C30.8948 25.1163 30.9369 25.0748 30.9369 25.0236C30.9369 24.9658 30.9369 24.9079 30.9369 24.8494C30.9369 24.7707 30.9863 24.7011 31.061 24.6762C31.1303 24.6531 31.1801 24.5907 31.1863 24.518C31.1895 24.4802 31.1927 24.4422 31.196 24.4037C31.2405 24.0854 31.3599 23.823 31.496 23.5341C31.583 23.3441 31.6506 23.1504 31.713 22.9519C31.7258 22.9114 31.7626 22.8837 31.805 22.8837C31.8549 22.8837 31.8972 22.8457 31.9018 22.796C31.9073 22.7362 31.9129 22.676 31.9186 22.6146C31.9537 22.4298 32.0589 22.2574 32.237 22.1967C32.3258 22.1664 32.4182 22.1459 32.5132 22.1328C33.2661 22.0284 33.887 21.5499 33.887 20.7898C33.887 14.7871 33.887 8.77514 33.887 2.63134C33.887 1.17815 35.0454 0 36.4985 0C37.9517 0 39.1495 1.17803 39.1495 2.63122C39.1495 7.12294 39.1495 11.6245 39.1495 16.186C39.1495 19.6208 41.9339 22.4053 45.3688 22.4053C47.3165 22.4053 49.2782 22.4053 51.2667 22.4053C51.4441 22.4053 51.588 22.5492 51.588 22.7266C51.588 22.7325 51.588 22.7384 51.588 22.7444C51.588 22.8746 51.5032 22.9897 51.3787 23.0282C51.115 23.121 50.879 23.2331 50.6312 23.3621C47.2824 25.0365 47.2824 25.0365 47.0532 25.1462C46.8535 25.25 46.6692 25.3591 46.4801 25.4801C46.248 25.6276 46.0261 25.7386 45.7674 25.8339C45.6073 25.9123 45.4479 25.9921 45.289 26.0731C43.3754 27.0299 43.3754 27.0299 43.159 27.137C42.8685 27.2835 42.581 27.4349 42.294 27.588C42.2425 27.6154 42.1909 27.6427 42.1378 27.6709C41.9142 27.7901 41.6941 27.9111 41.4767 28.0415C41.2908 28.1531 41.1054 28.2269 40.9037 28.3056C40.7435 28.384 40.5841 28.4638 40.4253 28.5449C38.0332 29.7409 38.0332 29.7409 37.804 29.8505C37.5433 29.9861 37.3006 30.1387 37.0552 30.2999C37.0061 30.3279 36.9744 30.346 36.9468 30.3576C36.8552 30.3963 36.7754 30.4696 36.7947 30.5671C36.8486 30.935 36.8659 31.2988 36.8803 31.6701C36.8836 31.7557 36.887 31.8413 36.8904 31.9295C36.9378 33.2952 36.937 34.6622 36.9438 36.0286C36.9454 36.3535 36.9473 36.6784 36.9491 37.0033C36.9535 37.7684 36.9576 38.5336 36.9614 39.2987C36.9653 40.0878 36.9698 40.8769 36.9746 41.6659C36.9787 42.3461 36.9825 43.0263 36.986 43.7064C36.9881 44.1116 36.9903 44.5168 36.9928 44.922C36.9951 45.3011 36.997 45.6802 36.9987 46.0593C36.9993 46.1986 37.0001 46.338 37.0011 46.4773C37.0024 46.6666 37.0031 46.8559 37.0038 47.0452C37.0045 47.1289 37.0045 47.1289 37.0053 47.2143C37.0056 47.4631 36.8836 47.7095 36.635 47.6971C36.5897 47.6949 36.5434 47.6919 36.4966 47.6921C36.438 47.692 36.3794 47.6918 36.3189 47.6917C36.2591 47.6917 36.1992 47.6918 36.1375 47.6919C36.0107 47.6919 35.8839 47.6918 35.7571 47.6915C35.5623 47.691 35.3675 47.6915 35.1728 47.692C35.0498 47.6919 34.9269 47.6918 34.804 47.6917C34.7453 47.6918 34.6867 47.692 34.6263 47.6921C34.5589 47.6918 34.5025 47.6916 34.455 47.691C34.2258 47.688 34.1121 47.4767 34.1038 47.2476C34.0994 47.1338 34.0994 47.1338 34.0949 47.0176C34.0907 46.892 34.0907 46.892 34.0864 46.7638C34.0831 46.6759 34.0799 46.588 34.0766 46.4975C34.0697 46.3086 34.063 46.1198 34.0565 45.9309C34.0469 45.6548 34.0368 45.3787 34.0266 45.1026C34.0066 44.5543 33.989 44.006 33.9719 43.4576C33.9668 43.2971 33.9614 43.1367 33.9559 42.9762C33.8698 40.4299 33.8669 37.8823 33.864 35.3348C33.8631 34.5979 33.8611 33.861 33.8576 33.124C33.8552 32.5987 33.8541 32.0734 33.8538 31.5481C33.8536 31.2366 33.8529 30.9252 33.8509 30.6138C33.849 30.3238 33.8487 30.0338 33.8495 29.7437C33.8496 29.5868 33.848 29.4298 33.8465 29.2729C33.847 29.1799 33.8476 29.0869 33.8482 28.9911C33.8481 28.9701 33.8481 28.9491 33.848 28.9281C33.8477 28.807 33.8424 28.6749 33.8941 28.5654C33.9573 28.4315 34.1009 28.3628 34.2348 28.2998C34.3547 28.2433 34.4767 28.1949 34.6047 28.1462C34.7648 28.0678 34.9242 27.988 35.0831 27.907C36.9967 26.9502 36.9967 26.9502 37.2259 26.8405C37.4256 26.7367 37.6099 26.6276 37.799 26.5066C38.031 26.3592 38.253 26.2481 38.5116 26.1528C38.6718 26.0745 38.8312 25.9946 38.99 25.9136C39.1495 25.8339 39.309 25.7542 39.4684 25.6744C39.5215 25.647 39.5745 25.6195 39.6292 25.5913C39.6847 25.5628 39.7402 25.5343 39.7973 25.505C39.8485 25.4785 39.8997 25.4519 39.9524 25.4246C40.1063 25.3555 40.1063 25.3555 40.2801 25.3162C40.3174 25.3058 40.3547 25.2954 40.3927 25.2848C40.4134 25.279 40.4306 25.2651 40.4402 25.2459C40.4676 25.1911 40.4225 25.1277 40.3618 25.1362C40.3275 25.1409 40.292 25.1459 40.2228 25.1555C39.907 25.1948 39.5974 25.2061 39.2788 25.2063C39.2239 25.2065 39.169 25.2066 39.1124 25.2068C38.9332 25.2071 38.754 25.2069 38.5749 25.2066C38.4494 25.2067 38.324 25.2067 38.1985 25.2068C37.9368 25.207 37.6751 25.2068 37.4134 25.2064C37.0779 25.206 36.7424 25.2062 36.4069 25.2067C36.1484 25.207 35.89 25.2069 35.6315 25.2067C35.5077 25.2066 35.384 25.2067 35.2602 25.2069C35.0877 25.2071 34.9152 25.2068 34.7427 25.2063C34.6446 25.2063 34.5465 25.2062 34.4454 25.2061C34.367 25.2028 34.3143 25.2006 34.2704 25.1963C34.1163 25.1812 33.9668 25.2762 33.9668 25.4311C33.9668 25.4413 33.9668 25.4514 33.9668 25.4616C33.9668 25.5411 33.9168 25.6113 33.8414 25.6365C33.7727 25.6594 33.7228 25.7207 33.7152 25.7928C33.7111 25.8327 33.7069 25.8729 33.7027 25.9136C33.6583 26.2324 33.5527 26.5119 33.4341 26.8071C33.4188 26.8454 33.3822 26.8704 33.341 26.8704C33.2891 26.8704 33.2451 26.9096 33.2399 26.9612C33.2364 26.9954 33.2328 27.0298 33.2292 27.0648C33.1531 27.4265 33.0064 27.733 32.8505 28.0664C32.7704 28.2523 32.6906 28.4384 32.6113 28.6246C32.5718 28.715 32.5324 28.8055 32.4917 28.8987C32.3719 29.1832 32.2626 29.4698 32.1556 29.7591C32.1419 29.7961 32.1073 29.8206 32.0679 29.8206C32.016 29.8206 31.9734 29.8627 31.9734 29.9146C31.9734 30.0057 31.9734 30.0972 31.9734 30.19C31.9734 30.2568 31.9363 30.3176 31.8765 30.3475C31.8367 30.3674 31.8052 30.4019 31.79 30.4437C31.7408 30.5801 31.6966 30.7184 31.6545 30.8571C31.6116 30.9868 31.5684 31.1164 31.5249 31.2458C31.5042 31.3081 31.4834 31.3704 31.462 31.4346C31.4535 31.4601 31.445 31.4856 31.4364 31.5114C31.4238 31.5492 31.3889 31.5748 31.349 31.5748C31.2979 31.5748 31.2558 31.6162 31.2558 31.6674C31.2558 31.7252 31.2558 31.7832 31.2558 31.8416C31.2558 31.9203 31.2064 31.9899 31.1317 32.0148C31.0624 32.0379 31.0126 32.1003 31.0064 32.1731C31.0032 32.2108 31 32.2488 30.9967 32.2874C30.9522 32.6056 30.8328 32.868 30.6967 33.157C30.6104 33.3454 30.5432 33.5375 30.4812 33.7343C30.4675 33.7777 30.4281 33.8073 30.3826 33.8073C30.3341 33.8073 30.2915 33.841 30.281 33.8884C30.2394 34.0758 30.1976 34.2637 30.1549 34.4556C30.1459 34.4961 30.1106 34.5249 30.0691 34.5249C30.0203 34.5249 29.9801 34.5645 29.9801 34.6134C29.9801 34.7111 29.9801 34.809 29.9801 34.9085C29.9801 34.9666 29.9478 35.0194 29.8959 35.0454C29.8493 35.0687 29.8171 35.1143 29.8114 35.166C29.8046 35.2274 29.7977 35.2891 29.7907 35.3522C29.7658 35.4967 29.7533 35.569 29.7296 35.6244C29.6739 35.755 29.5319 35.8387 29.3937 35.8709C29.155 35.9266 28.9175 35.7749 28.9022 35.5303C28.895 35.4159 28.9008 35.2976 28.894 35.1983C28.8891 35.1437 28.8854 35.1029 28.8799 35.0689C28.8424 34.8381 28.6802 34.6436 28.6645 34.4103C28.6508 34.2081 28.6359 34.0691 28.5449 33.887C28.4292 33.6558 28.43 33.4339 28.4128 33.1791C28.3828 32.8785 28.1998 32.6142 28.1794 32.3128C28.1775 32.2837 28.1755 32.2544 28.1736 32.2251C28.1443 31.9217 27.951 31.6593 27.9067 31.3578C27.9051 31.347 27.9035 31.3363 27.902 31.3256C27.9011 31.3132 27.9003 31.3013 27.8996 31.2899C27.875 30.9322 27.7253 30.5948 27.698 30.2373C27.6649 29.9317 27.48 29.661 27.4602 29.3542C27.4597 29.3456 27.4591 29.3366 27.4585 29.3272C27.4495 29.1973 27.4495 29.1973 27.4404 29.0647C27.438 29.0246 27.4357 28.9844 27.4333 28.9439C27.4306 28.8989 27.394 28.8638 27.3489 28.8638C27.3043 28.8638 27.2666 28.8293 27.2635 28.7847C27.2614 28.7561 27.2594 28.7271 27.2573 28.6978C27.2483 28.59 27.2483 28.59 27.2392 28.4801C27.2337 28.4088 27.2281 28.3376 27.2224 28.2642C27.1895 27.945 27.0012 27.6607 26.9805 27.3405C26.9804 27.3383 26.9802 27.3361 26.9801 27.3339C26.9711 27.2039 26.9711 27.2039 26.962 27.0713C26.9597 27.0322 26.9574 26.9931 26.9551 26.9535C26.9523 26.9069 26.9143 26.8704 26.8675 26.8704C26.8237 26.8704 26.786 26.8384 26.7796 26.795C26.7736 26.7546 26.7676 26.7138 26.7614 26.6723C26.7481 26.5864 26.7347 26.5005 26.7209 26.412C26.7015 26.2843 26.7015 26.2843 26.6817 26.1541C26.6434 25.9196 26.6434 25.9196 26.5465 25.7467C26.4542 25.5589 26.4557 25.4239 26.4618 25.2159C26.4632 25.1522 26.4647 25.0885 26.4662 25.0228C26.4672 24.9961 26.4678 24.9792 26.4684 24.9649C26.4702 24.9169 26.4325 24.8771 26.3845 24.8771C26.3432 24.8771 26.3073 24.8472 26.3005 24.8064C26.2655 24.5962 26.2304 24.3857 26.1948 24.172C26.1877 24.1295 26.1262 24.1307 26.1207 24.1735C26.1065 24.2834 26.0923 24.3934 26.0781 24.5033C26.0711 24.5584 26.0642 24.6134 26.0571 24.6701C25.9968 25.1318 25.896 25.5906 25.8777 26.0559C25.8758 26.1035 25.874 26.1511 25.8724 26.1988C25.866 26.3345 25.8529 26.4596 25.8328 26.5811C25.7646 26.9936 25.6481 27.3994 25.6346 27.8173C25.6218 28.208 25.5773 28.551 25.4743 28.9311C25.3826 29.3343 25.3702 29.7529 25.3387 30.1643C25.3123 30.4778 25.281 30.7592 25.1935 31.0627C25.0811 31.4597 25.0825 31.8495 25.0711 32.2598C25.0688 32.321 25.0664 32.3822 25.064 32.4453C25.0617 32.5276 25.0617 32.5276 25.0594 32.6117C25.0365 32.7708 25.0365 32.7708 24.9568 32.9288C24.8665 33.1111 24.8548 33.2358 24.8497 33.4382C24.8473 33.5037 24.8449 33.5693 24.8425 33.6368C24.8408 33.7046 24.839 33.7724 24.8372 33.8422C24.8332 33.9964 24.8272 34.1374 24.8138 34.2732C24.7647 34.7709 24.6111 35.2558 24.598 35.7558C24.5949 35.8745 24.5896 35.9868 24.581 36.0957C24.5323 36.7064 24.3703 37.3046 24.3535 37.917C24.3511 37.9786 24.3488 38.0402 24.3463 38.1036C24.3441 38.1867 24.3441 38.1867 24.3418 38.2715C24.3189 38.4319 24.3189 38.4319 24.2392 38.5903C24.1491 38.7717 24.1372 38.8951 24.1321 39.0966C24.1297 39.1617 24.1273 39.2269 24.1249 39.294C24.1231 39.3614 24.1214 39.4289 24.1196 39.4983C24.1141 39.708 24.1025 39.898 24.0771 40.0845C24.016 40.5318 23.8939 40.9707 23.8804 41.4219C23.8621 42.0359 23.8621 42.0359 23.7608 42.3361C23.636 42.7147 23.6469 43.0955 23.6359 43.4914C23.6327 43.5755 23.6273 43.6535 23.6192 43.728C23.5685 44.1959 23.4151 44.6492 23.402 45.1196C23.3922 45.4686 23.3808 45.7827 23.283 46.1197C23.1779 46.4932 23.1662 46.8513 23.1528 47.2375C23.1497 47.3111 23.1467 47.3846 23.1435 47.4604C23.1407 47.5266 23.1381 47.5929 23.1355 47.6592C23.1281 47.8493 22.9743 48 22.784 48C22.6509 48 22.5248 47.9259 22.4742 47.8027C22.3223 47.4329 22.2877 47.0992 22.2807 46.6694C22.278 46.5362 22.2746 46.403 22.2705 46.2698C22.269 46.1825 22.269 46.1825 22.2675 46.0933C22.2587 46.0257 22.244 45.9662 22.2249 45.91C22.1541 45.7014 22.0648 45.497 22.059 45.2769C22.0566 45.215 22.0542 45.153 22.0518 45.0892C22.0501 45.0253 22.0483 44.9613 22.0465 44.8954C22.0431 44.7696 22.0379 44.6532 22.0281 44.5415C21.9821 44.0176 21.8089 43.5109 21.7674 42.9867C21.7526 42.8009 21.7336 42.6231 21.708 42.448C21.6264 41.8907 21.5008 41.339 21.4759 40.7763C21.459 40.507 21.459 40.507 21.3688 40.2711C21.256 39.9252 21.2554 39.583 21.2439 39.223C21.2328 38.9699 21.2101 38.7533 21.1296 38.5123C21.014 38.1645 21.016 37.8175 21.0047 37.4548C20.994 37.1365 20.994 37.1365 20.8904 36.8397C20.8024 36.661 20.7884 36.5417 20.7832 36.3439C20.7797 36.2504 20.7797 36.2504 20.7761 36.1551C20.7725 36.0251 20.769 35.8951 20.7655 35.7652C20.7619 35.6717 20.7619 35.6717 20.7583 35.5764C20.7568 35.52 20.7553 35.4636 20.7538 35.4054C20.7062 35.0665 20.5537 34.7485 20.5386 34.4066C20.5335 34.2922 20.5296 34.1776 20.5263 34.0624C20.518 33.725 20.518 33.725 20.412 33.4097C20.3235 33.2317 20.31 33.1128 20.3048 32.9153C20.3025 32.853 20.3001 32.7907 20.2977 32.7265C20.2941 32.5966 20.2906 32.4666 20.2871 32.3366C20.2847 32.2743 20.2823 32.212 20.2799 32.1478C20.2784 32.0914 20.2769 32.035 20.2754 31.9768C20.2606 31.809 20.2606 31.809 20.1728 31.6545C20.084 31.477 20.0708 31.3583 20.0656 31.1611C20.0633 31.0988 20.0609 31.0366 20.0585 30.9724C20.0549 30.8424 20.0514 30.7124 20.0479 30.5824C20.0455 30.5201 20.0431 30.4579 20.0407 30.3937C20.0392 30.3373 20.0377 30.2808 20.0362 30.2227C19.9886 29.8838 19.8345 29.5659 19.8196 29.224C19.8174 29.1722 19.8155 29.1203 19.814 29.0681C19.8114 28.9817 19.8078 28.9002 19.8022 28.8217C19.7615 28.2525 19.5862 27.699 19.5695 27.1286C19.5559 26.7764 19.5559 26.7764 19.458 26.4406C19.327 26.1105 19.3194 25.7672 19.2907 25.4153C19.2785 25.2703 19.2659 25.1254 19.253 24.9805C19.2451 24.8847 19.2451 24.8847 19.2371 24.787C19.2302 24.6165 19.1221 24.4645 19.1068 24.2946C19.1041 24.2643 19.1016 24.234 19.0991 24.2037C19.0929 24.1309 19.0867 24.0582 19.0803 23.9832C19.0679 23.8302 19.0556 23.6771 19.0436 23.5241C19.0325 23.3962 19.0184 23.2728 19.0007 23.1514C18.9192 22.5942 18.7898 22.0432 18.7649 21.4806C18.7481 21.2114 18.7481 21.2114 18.6578 20.9757C18.5444 20.6276 18.5443 20.2826 18.5329 19.9203C18.5269 19.7834 18.5162 19.6585 18.4948 19.5377C18.4588 19.3337 18.2382 19.3394 18.2165 19.5455C18.2061 19.6418 18.2061 19.6418 18.1954 19.7401C18.1885 19.8073 18.1816 19.8744 18.1744 19.9435C18.1672 20.0113 18.1599 20.079 18.1525 20.1488C18.1372 20.2914 18.1223 20.434 18.1074 20.5766C18.103 20.619 18.0679 20.6512 18.0253 20.6512C17.9788 20.6512 17.9408 20.6892 17.9416 20.7357C17.9419 20.7575 17.9423 20.7793 17.943 20.8234C17.9534 21.9247 17.9534 21.9247 17.7801 22.2262C17.6712 22.4727 17.6725 22.6952 17.6611 22.9635C17.639 23.4868 17.639 23.4868 17.5418 23.6776C17.4202 23.9251 17.4275 24.1827 17.4169 24.4535C17.4107 24.5957 17.406 24.7026 17.4011 24.7844C17.3873 25.0154 17.1768 25.1313 16.9457 25.1415C16.874 25.1448 16.8023 25.1482 16.7285 25.1516C16.6531 25.1548 16.5777 25.1579 16.5 25.1611C16.4243 25.1646 16.3486 25.168 16.2706 25.1716C15.9349 25.1867 15.645 25.4147 15.5593 25.7396C15.4843 26.0243 15.414 26.31 15.3516 26.5985C15.2989 26.8361 15.2422 27.0726 15.1844 27.309C15.1645 27.3904 15.1447 27.4718 15.1243 27.5556C15.0696 27.748 14.9769 27.9354 14.9614 28.1347C14.9538 28.2329 14.9473 28.3312 14.9405 28.4296C14.9329 28.479 14.9271 28.5159 14.9203 28.5473C14.8695 28.7802 14.7232 28.9846 14.711 29.2226C14.703 29.3427 14.6949 29.4254 14.6751 29.5002C14.6143 29.7307 14.484 29.9414 14.4718 30.1794C14.4651 30.2793 14.4584 30.3533 14.4449 30.4185C14.3916 30.6773 14.2445 30.9121 14.2326 31.1761C14.2244 31.3129 14.2171 31.4061 14.1944 31.4924C14.1336 31.7228 14.0055 31.9347 13.9934 32.1728C13.9853 32.2928 13.9773 32.3755 13.9575 32.4504C13.8967 32.6809 13.7663 32.8915 13.7542 33.1296C13.746 33.2522 13.7377 33.3358 13.717 33.412C13.6554 33.6389 13.5271 33.8466 13.515 34.0814C13.507 34.1995 13.4914 34.2985 13.4663 34.3925C13.3974 34.6503 13.2813 34.8948 13.2359 35.1578C13.2158 35.2655 13.1926 35.3675 13.1657 35.4671C13.0751 35.8023 12.9547 36.1294 12.8827 36.4691C12.83 36.7108 12.772 36.9508 12.7126 37.191C12.6928 37.2715 12.673 37.352 12.6525 37.4349C12.5855 37.6804 12.5018 37.9231 12.4813 38.1768C12.477 38.2301 12.4729 38.2835 12.4688 38.3369C12.4618 38.3773 12.4564 38.4083 12.4503 38.4352C12.3975 38.6676 12.2514 38.8716 12.2392 39.1096C12.2304 39.2419 12.2215 39.3287 12.197 39.4097C12.1325 39.6236 12.0081 39.8188 11.99 40.0415C11.973 40.215 11.829 40.3488 11.6547 40.3478C11.6468 40.3478 11.6389 40.3477 11.631 40.3476C11.5352 40.3469 11.4376 40.3093 11.4031 40.2199C11.3289 40.0276 11.3634 39.7494 11.3525 39.5622C11.3315 39.309 11.3315 39.309 11.2422 39.0804C11.1432 38.769 11.1327 38.4824 11.1229 38.1578C11.1128 37.8216 11.0971 37.5238 11.0033 37.1988C10.8905 36.8 10.8899 36.4118 10.8784 35.9997C10.8657 35.6341 10.8657 35.6341 10.7641 35.2858C10.6184 34.9153 10.6494 34.5094 10.6392 34.1152C10.6369 34.0497 10.6345 33.9841 10.6321 33.9166C10.6306 33.8574 10.6291 33.7981 10.6275 33.7371C10.619 33.674 10.6055 33.618 10.5882 33.5651C10.5167 33.3466 10.4236 33.1332 10.4178 32.9034C10.4154 32.8383 10.413 32.7731 10.4106 32.706C10.4089 32.6386 10.4071 32.5711 10.4053 32.5017C10.4021 32.3787 10.3967 32.2625 10.3876 32.1499C10.3386 31.5438 10.1777 30.9503 10.1608 30.3425C10.1486 29.9758 10.1486 29.9758 10.0465 29.6269C9.89636 29.2409 9.93162 28.8127 9.92162 28.4027C9.91925 28.3335 9.91689 28.2644 9.91445 28.1932C9.91296 28.1306 9.91147 28.068 9.90994 28.0035C9.90148 27.9384 9.88816 27.8811 9.8709 27.8271C9.80034 27.6064 9.70599 27.3914 9.70017 27.1598C9.6978 27.0943 9.69544 27.0287 9.693 26.9612C9.69126 26.8934 9.68951 26.8257 9.68771 26.7558C9.68294 26.5716 9.67583 26.4058 9.65638 26.2449C9.60278 25.8017 9.46481 25.3682 9.45349 24.9219C9.43202 24.3684 9.35493 23.8605 9.22519 23.3207C9.14763 22.9347 9.12054 22.546 9.10261 22.1545C9.09886 22.0727 8.98911 22.0484 8.95249 22.1216C8.93906 22.1485 8.91127 22.1661 8.88126 22.1661C8.87769 22.1661 8.87412 22.1661 8.87055 22.1661C8.81598 22.1661 8.77225 22.2113 8.77403 22.2658C8.77624 22.3332 8.77846 22.401 8.78073 22.4701C8.78341 22.5519 8.78406 22.6139 8.77942 22.667C8.75535 22.9421 8.57378 23.1797 8.52658 23.4518C8.51804 23.5005 8.51059 23.543 8.50392 23.5802C8.46072 23.8209 8.33793 24.0448 8.28738 24.2841C8.27329 24.3499 8.25921 24.4158 8.24471 24.4837C8.23933 24.5095 8.23395 24.5354 8.22854 24.5614C8.21927 24.6059 8.18061 24.6379 8.13511 24.6379C8.08816 24.6379 8.0475 24.6718 8.03978 24.7181C8.03098 24.771 8.02215 24.8239 8.01329 24.8771C7.99028 25.0151 7.87086 25.1163 7.73092 25.1163C7.36165 25.1163 6.99202 25.1163 6.62043 25.1163C5.73834 25.1163 5.02326 25.8313 5.02326 26.7134C5.02326 32.9185 5.02326 39.1345 5.02326 45.4882C5.02326 46.8754 3.9176 48 2.53047 48C1.14333 48 0 46.8755 0 45.4884C0 31.2997 0 17.0907 0 2.51645Z" fill="url(#paint0_linear_2_12155)"/>
<defs>
<linearGradient id="paint0_linear_2_12155" x1="8.81296" y1="6" x2="38.3184" y2="44.6875" gradientUnits="userSpaceOnUse">
<stop stop-color="#007BFF"/>
<stop offset="1" stop-color="#28A745"/>
</linearGradient>
</defs>
</svg>
